<svg xmlns="http://www.w3.org/2000/svg" viewBox="0 0 256 256"><defs><linearGradient id="g" x1="60" y1="210" x2="200" y2="75"><stop stop-color="#7226FF"/><stop offset=".55" stop-color="#B44FFF"/><stop offset="1" stop-color="#38DFFF"/></linearGradient><linearGradient id="g1" y1="180" y2="110"><stop stop-color="#49E36F"/><stop offset="1" stop-color="#B7FF65"/></linearGradient><linearGradient id="g2" y1="180" y2="80"><stop stop-color="#FFB21A"/><stop offset="1" stop-color="#FFE45C"/></linearGradient><linearGradient id="g3" y1="180" y2="55"><stop stop-color="#F34DCE"/><stop offset="1" stop-color="#FF9CEB"/></linearGradient><linearGradient id="g4" y1="180" y2="35"><stop stop-color="#18B9FF"/><stop offset="1" stop-color="#7CEBFF"/></linearGradient><filter id="s"><feDropShadow dx="0" dy="10" stdDeviation="10" flood-color="#020617" flood-opacity=".55"/></filter></defs><ellipse cx="128" cy="216" rx="72" ry="13" fill="#020617" opacity=".55"/><ellipse cx="128" cy="201" rx="82" ry="25" fill="#0A1240" stroke="#9A4CFF" stroke-width="3" filter="url(#s)"/><rect x="63" y="137" width="25" height="46" rx="7" fill="url(#g1)"/><rect x="97" y="111" width="25" height="72" rx="7" fill="url(#g2)"/><rect x="131" y="79" width="25" height="104" rx="7" fill="url(#g3)"/><rect x="165" y="51" width="25" height="132" rx="7" fill="url(#g4)"/><path d="M54 119 91 97l27 12 37-28 36-31" fill="none" stroke="url(#g)" stroke-width="7" stroke-linecap="round" stroke-linejoin="round"/><path d="m178 45 16 5-8 14" fill="none" stroke="#7CEBFF" stroke-width="6" stroke-linecap="round" stroke-linejoin="round"/><circle cx="54" cy="119" r="5" fill="#8B4CFF"/><circle cx="91" cy="97" r="5" fill="#B54FFF"/><circle cx="118" cy="109" r="5" fill="#D968FF"/><circle cx="155" cy="81" r="5" fill="#E75FDE"/><circle cx="191" cy="53" r="5" fill="#53E4FF"/></svg>
